<svg t="1587615445830" class="icon" viewBox="0 0 1024 1024" version="1.1" xmlns="http://www.w3.org/2000/svg" p-id="5847" width="200" height="200"><path d="M1024 576l-128-256h-192V192c0-35.2-28.8-64-64-64H64C28.8 128 0 156.8 0 192v512l64 64h81.166A127.362 127.362 0 0 0 128 832c0 70.692 57.308 128 128 128s128-57.308 128-128a127.362 127.362 0 0 0-17.166-64h354.334A127.364 127.364 0 0 0 704 832c0 70.692 57.308 128 128 128s128-57.308 128-128a127.364 127.364 0 0 0-17.168-64H1024v-192z m-320 0v-192h132.668l96 192H704z" fill="#515151" p-id="5848"></path></svg>