<svg t="1587620282963" class="icon" viewBox="0 0 1024 1024" version="1.1" xmlns="http://www.w3.org/2000/svg" p-id="8768" width="200" height="200"><path d="M125.3 566.6 125.3 359.6 9.1 463.1Z" p-id="8769" fill="#515151"></path><path d="M810.6 124.5 199.7 124.5c-27.5 0-50 22.5-50 50l0 539.8c0 27.5 22.5 50 50 50l610.9 0c27.5 0 50-22.5 50-50L860.6 174.5C860.6 147 838.1 124.5 810.6 124.5zM720.3 698.1 222.7 698.1 222.7 520.4l106.6-106.6L507 591.5l106.6-106.6 106.6 106.6L720.3 698.1 720.3 698.1zM692.7 359.6c-39.3 0-71.1-31.8-71.1-71.1 0-39.3 31.8-71.1 71.1-71.1 39.3 0 71.1 31.8 71.1 71.1C763.8 327.7 732 359.6 692.7 359.6z" p-id="8770" fill="#515151"></path><path d="M885.1 378.3 885.1 585.4 1001.2 481.8Z" p-id="8771" fill="#515151"></path></svg>