<svg t="1587623156221" class="icon" viewBox="0 0 1024 1024" version="1.1" xmlns="http://www.w3.org/2000/svg" p-id="17592" width="200" height="200"><path d="M813.1 882.8H210.9c-34.9 0-67.6-14.1-89.9-38.6-21.5-23.7-31.7-54.7-28.5-87.1l0.1-1 70-522.8c5.4-51.7 56.6-92.1 117-92.1h464.8c60.3 0 111.6 40.4 117 92.1l70 523.3v0.5c3.2 32.4-7 63.4-28.5 87.1-22.2 24.5-55 38.6-89.8 38.6zM148.3 763c-1.5 16.3 3.6 31.8 14.3 43.6 11.8 13 29 20.2 48.4 20.2h602.1c19.4 0 36.6-7.2 48.4-20.2 10.7-11.8 15.8-27.3 14.3-43.6l-70-523.2v-0.5c-2.2-22.8-30.3-42.1-61.3-42.1H279.6c-31 0-59.1 19.3-61.3 42.1l-0.1 1L148.3 763z m363.5-272c-96.5 0-174.9-78.5-174.9-174.9V289c0-15.5 12.5-28 28-28s28 12.5 28 28v27.1c0 65.6 53.3 118.9 118.9 118.9 65.6 0 118.9-53.3 118.9-118.9V289c0-15.5 12.5-28 28-28s28 12.5 28 28v27.1c0 96.5-78.4 174.9-174.9 174.9z" p-id="17593"></path></svg>