<svg t="1587620431644" class="icon" viewBox="0 0 1024 1024" version="1.1" xmlns="http://www.w3.org/2000/svg" p-id="11601" width="200" height="200"><path d="M948.831528 696.980211a472.252632 472.252632 0 0 1-101.605052 150.568421 473.559579 473.559579 0 0 1-150.770527 101.497263 471.659789 471.659789 0 0 1-184.589473 37.214316c-64.026947 0-126.127158-12.517053-184.697263-37.322106a472.885895 472.885895 0 0 1-150.757053-101.483789 472.872421 472.872421 0 0 1-101.618526-150.568421A470.002526 470.002526 0 0 1 37.538897 512.498526c0-63.946105 12.530526-125.978947 37.362526-184.454737a472.225684 472.225684 0 0 1 101.618526-150.568421A474.637474 474.637474 0 0 1 327.277002 75.991579a471.605895 471.605895 0 0 1 184.589474-37.214316c64.026947 0 126.140632 12.517053 184.710737 37.322105a472.899368 472.899368 0 0 1 150.757052 101.48379 473.963789 473.963789 0 0 1 101.618527 150.568421 470.002526 470.002526 0 0 1 37.254736 184.360421c0 63.946105-12.530526 125.978947-37.376 184.468211m34.627369-383.461053a508.806737 508.806737 0 0 0-109.648842-162.492632 511.191579 511.191579 0 0 0-162.694737-109.500631A507.850105 507.850105 0 0 0 511.866476 1.306947c-69.039158 0-136.111158 13.473684-199.235369 40.232421a508.362105 508.362105 0 0 0-162.70821 109.500632 510.464 510.464 0 0 0-109.635369 162.492632A506.085053 506.085053 0 0 0 0.001213 512.525474c0 68.958316 13.500632 135.949474 40.286315 198.992842a508.806737 508.806737 0 0 0 109.635369 162.492631 511.191579 511.191579 0 0 0 162.70821 109.500632 507.957895 507.957895 0 0 0 199.235369 40.232421 507.957895 507.957895 0 0 0 199.248842-40.232421 509.520842 509.520842 0 0 0 162.694737-109.500632 510.477474 510.477474 0 0 0 109.648842-162.492631 506.206316 506.206316 0 0 0 40.286316-199.006316 506.206316 506.206316 0 0 0-40.286316-198.992842" fill="#515151" p-id="11602"></path><path d="M740.541844 313.128421l14.093474-15.104 3.422316 6.346105 6.386526 11.829895c5.847579 10.927158 10.132211 20.830316 13.042526 30.841263 3.610947 12.422737 4.837053 24.522105 3.368421 35.84l-0.040421 0.673684c-4.850526 38.561684-21.827368 74.172632-47.696842 99.557053-25.640421 25.128421-58.502737 39.100632-95.056842 39.100632a143.898947 143.898947 0 0 1-44.69221-7.073685 142.214737 142.214737 0 0 1-23.14779-9.768421l-13.258105 15.265685 26.718316 27.149473c17.717895-15.279158 33.522526-23.821474 45.541052-19.375158 15.373474 5.712842 37.052632 23.174737 63.919158 49.906527 6.575158 6.548211 13.379368 13.568 20.372211 21.018947a1353.943579 1353.943579 0 0 1 43.789473 49.165474 1444.688842 1444.688842 0 0 1 18.728421 22.501052l8.448 10.442106-3.328 3.287579-6.197894 6.144-85.005474 84.641684-9.296842 9.189052-3.597474-2.802526-6.885052-5.389474c1.482105 1.28-12.517053-9.943579-22.730106-18.391579a1358.713263 1358.713263 0 0 1-50.014315-43.304421 870.359579 870.359579 0 0 1-21.544422-20.304842c-27.243789-26.637474-44.975158-48.128-50.701473-63.407158-3.624421-9.728 1.697684-22.581895 11.92421-37.416421l-23.296-23.70021a10611.402105 10611.402105 0 0 1-92.294737 103.82821c-40.218947 44.557474-71.68 78.228211-91.634526 97.738106-11.735579 11.452632-30.450526 7.302737-49.960421-7.397053a138.374737 138.374737 0 0 1-15.535158-13.783579 133.012211 133.012211 0 0 1-13.298526-15.76421c-13.163789-18.526316-16.168421-35.961263-4.729263-46.996211 19.213474-18.593684 53.126737-50.189474 97.199158-90.637474 30.167579-27.715368 61.130105-55.942737 103.747368-94.652631l-109.999158-111.912421-46.160842-6.224842-8.111158-1.104843-1.185684-2.586947-2.236632-4.904421-30.989473-68.338526-4.136421-9.081263 2.411789-2.533053 4.486737-4.71579 29.776842-31.245473 7.572211-7.868632 3.408842 1.684211 6.332631 3.139368 67.934316 33.792 6.332632 3.152842 0.538947 2.384842 1.024 4.500211 9.970526 44.584421 111.508211 113.367579 14.713263-13.298526a135.410526 135.410526 0 0 1-8.528842-20.412632 137.256421 137.256421 0 0 1-6.858105-42.981053c0-35.799579 13.338947-66.600421 38.157473-90.987789 24.805053-24.306526 60.389053-41.202526 101.982316-49.246316 10.509474-2.021053 21.194105-1.347368 32.606316 1.576421 7.922526 2.021053 14.726737 4.581053 26.677895 9.620211l19.550315 8.272842-5.052631 5.416421-9.445053 10.091789-64.498526 69.025685 40.057263 37.645473 65.401263-70.009263z" fill="#515151" p-id="11603"></path></svg>