<svg t="1587620089703" class="icon" viewBox="0 0 1024 1024" version="1.1" xmlns="http://www.w3.org/2000/svg" p-id="3377" width="200" height="200"><path d="M480 64c-265.088 0-480 214.912-480 480s214.912 480 480 480c265.088 0 480-214.912 480-480s-214.912-480-480-480zM480 928c-212.064 0-384-171.936-384-384s171.936-384 384-384c212.064 0 384 171.936 384 384s-171.936 384-384 384z" p-id="3378" fill="#515151"></path><path d="M608 576c17.664 0 32-14.336 32-32s-14.336-32-32-32l-68.192 0 94.816-142.24c9.792-14.72 5.824-34.56-8.864-44.384s-34.56-5.824-44.384 8.864l-101.376 152.064-101.376-152.064c-9.792-14.72-29.664-18.688-44.384-8.864s-18.688 29.664-8.864 44.384l94.848 142.24-68.224 0c-17.664 0-32 14.336-32 32s14.336 32 32 32l96 0 0 64-96 0c-17.664 0-32 14.336-32 32s14.336 32 32 32l96 0 0 96c0 17.664 14.336 32 32 32s32-14.336 32-32l0-96 96 0c17.664 0 32-14.336 32-32s-14.336-32-32-32l-96 0 0-64 96 0z" p-id="3379" fill="#515151"></path></svg>