<svg t="1587620018831" class="icon" viewBox="0 0 1024 1024" version="1.1" xmlns="http://www.w3.org/2000/svg" p-id="7310" width="200" height="200"><path d="M862.8 98.4H160.7c-53.2 0.1-96.2 43.3-96.1 96.5 0.1 47.4 34.4 86.7 79.5 94.6v533.1c0 56.9 46.1 103 103 103h531c56.9 0 103-46.1 103-103V289.3c44.7-8.4 78.4-47.7 78.3-94.8-0.2-53.2-43.4-96.2-96.6-96.1zM671.9 532.7c-0.3 20.7-17.3 37.1-38 36.8h-77.3c-0.8 0.1-1.5 0.7-1.5 1.5v33.5c0.1 0.7 0.8 1.3 1.5 1.3h76.7c20.5-0.8 37.7 15.2 38.5 35.7 0.8 20.5-15.2 37.7-35.7 38.5h-79.5c-0.8 0.1-1.5 0.7-1.5 1.5v35.8h-0.5c0.6 2.9 0.9 5.8 1 8.8-0.8 26.2-22.4 46.9-48.6 46.6-26.1 0.7-47.9-19.9-48.6-46v-0.6c0.1-2.9 0.4-5.9 1-8.8h-1v-35.8c0-0.8-0.7-1.5-1.5-1.5h-76.6c-20.6 1.1-38.2-14.7-39.3-35.3-1.1-20.6 14.7-38.2 35.3-39.3 1.3-0.1 2.6-0.1 4 0h76.2c0.8 0 1.4-0.5 1.5-1.3v-33.5c0-0.8-0.7-1.5-1.5-1.6h-76.2c-20.5 1.1-38.1-14.7-39.2-35.2-1.1-20.5 14.7-38.1 35.2-39.2 1.3-0.1 2.6-0.1 4 0h69.5c0.7 0 1.2-0.4 1.5-1 0.5-1.5 1.5-3.1 2-4.4 0.5-0.5 0.4-1.4-0.1-1.8-0.1-0.1-0.2-0.2-0.3-0.2l-85.7-82.4c-10.2-14.1-7.1-33.8 7-44 0.3-0.3 0.7-0.5 1.1-0.7 11.6-13.9 31.8-17 47.1-7.2l84.2 80.3c0.8 0.5 1.8 0.5 2.6 0l77.6-78.8c16.1-12.3 39-10.2 52.6 4.9 15 14.7 22.5 27.8 7.5 44l-91.2 89.3c-0.4 0.4-0.6 1-0.5 1.5 0 0.8 0.7 1.3 1.4 1.3H633.5c20.9-0.4 38.2 16.2 38.6 37.1v0.2z" p-id="7311" fill="#515151"></path></svg>