<svg t="1587614378617" class="icon" viewBox="0 0 1024 1024" version="1.1" xmlns="http://www.w3.org/2000/svg" p-id="3140" width="200" height="200"><path d="M512.4 585.5c133.9-0.4 244.4-98.2 262.2-225v-0.2c0.2-1.2 0.3-2.4 0.5-3.6 0.2-1.7 0.4-3.3 0.6-5 0-0.2 0-0.5 0.1-0.7 0.9-8.9 1.4-17.9 1.4-27 0-1.8-0.1-3.5-0.1-5.3v-1.2-0.7c-2-64.8-28-123.7-69.7-168.3C658.8 95.9 589 63.3 511.8 64c-69.9-0.7-137.2 26.4-187 75.4-7.6 7.5-14.8 15.4-21.4 23.7-35.8 44.4-57.1 100.6-57.1 161.7v0.4c0 1.5 0 3 0.1 4.5 1.7 90.8 50.6 170.2 123.6 215.7l-6.6 2.6c-150.2 54.7-250.1 197.6-249.8 357.5v22.8c0.6 17.5 15.1 31.4 32.6 31.4 16.8 0 31-12.4 33.4-29.1v-4.7c-0.6-9.8-0.6-19.7 0-29.5C189.7 720.7 336 583.9 511.9 585.7c0-0.2 0.2-0.2 0.5-0.2z m-0.6-69.3c-107.4 0-195.8-84.6-200.5-191.9 0.5-52.6 21.9-102.9 59.5-139.7 37.6-36.8 88.2-57.2 140.8-56.7 109.6-1.1 199.4 86.8 200.7 196.4-4.7 107.3-93.1 191.9-200.5 191.9zM898 731.8H768.1V598.1c0-16.6-13.4-30-30-30h-4c-16.6 0-30 13.4-30 30v133.7H566.6c-16.6 0-30 13.4-30 30v4c0 16.6 13.4 30 30 30h137.6v133.7c0 16.6 13.4 30 30 30h4c16.6 0 30-13.4 30-30V795.8H898c16.6 0 30-13.4 30-30v-4c0-16.5-13.4-30-30-30z" fill="#ffffff" p-id="3141"></path></svg>