<svg t="1587623059659" class="icon" viewBox="0 0 1024 1024" version="1.1" xmlns="http://www.w3.org/2000/svg" p-id="16836" width="200" height="200"><path d="M512.2 931.3V492.6c0-11.6 7-22 17.6-26.2l392.7-155.1c18-7.1 37.5 6.4 37.5 26.2v403.3c0 10.8-6.1 20.7-15.7 25.3L551.6 956.6c-18.3 8.9-39.4-4.7-39.4-25.3zM124.4 220.4L500.2 66.6c6.6-2.7 13.9-2.7 20.5 0l372.6 151.2c23.5 9.5 23 43.6-0.8 52.4L477.8 423.9c-6.7 2.5-14.1 2.2-20.6-0.7L123.5 272.1c-22.2-10.1-21.7-42.5 0.9-51.7z m302.1 732.2L78.2 755.4c-8.7-5-14.2-14.3-14.2-24.5V339.2c0-20.2 20.2-33.7 38.4-25.8l348.3 152.7c10.1 4.4 16.7 14.6 16.7 25.8V928c0 21.4-22.6 34.9-40.9 24.6zM151.3 524.8c-0.1 10.1 5 19.5 13.5 24.6l157.1 94.9c18.2 11 41.3-2.2 41.6-23.7 0.1-10.1-5-19.4-13.5-24.5l-157.1-94.9c-18.2-11.1-41.3 2-41.6 23.6z" fill="#666666" p-id="16837"></path></svg>